<svg width="20" height="20" viewBox="0 0 20 20" fill="none" xmlns="http://www.w3.org/2000/svg">
<path d="M9.386 0.209962C9.56154 0.0734069 9.7776 -0.000732422 10 -0.000732422C10.2224 -0.000732422 10.4385 0.0734069 10.614 0.209962L18.842 6.60996C19.2028 6.89066 19.4948 7.25011 19.6955 7.66086C19.8962 8.07161 20.0003 8.5228 20 8.97996V18C20 18.5304 19.7893 19.0391 19.4142 19.4142C19.0391 19.7892 18.5304 20 18 20H14C13.4696 20 12.9609 19.7892 12.5858 19.4142C12.2107 19.0391 12 18.5304 12 18V12H8V18C8 18.5304 7.78929 19.0391 7.41421 19.4142C7.03914 19.7892 6.53043 20 6 20H2C1.46957 20 0.960859 19.7892 0.585786 19.4142C0.210714 19.0391 0 18.5304 0 18V8.97996C0 8.05196 0.428 7.17996 1.16 6.60996L9.386 0.209962ZM10 2.26596L2.386 8.18796C2.26545 8.28173 2.16799 8.40187 2.10108 8.53916C2.03416 8.67645 1.99959 8.82724 2 8.97996V18H6V12C6 11.4695 6.21071 10.9608 6.58579 10.5857C6.96086 10.2107 7.46957 9.99996 8 9.99996H12C12.5304 9.99996 13.0391 10.2107 13.4142 10.5857C13.7893 10.9608 14 11.4695 14 12V18H18V8.97996C18.0004 8.82724 17.9658 8.67645 17.8989 8.53916C17.832 8.40187 17.7345 8.28173 17.614 8.18796L10 2.26796V2.26596Z" fill="#63798D"/>
</svg>
