<svg width="15" height="15" viewBox="0 0 15 15" fill="none" xmlns="http://www.w3.org/2000/svg">
<path d="M9.328 0.721925C9.39371 0.721807 9.45879 0.734641 9.51954 0.759693C9.58028 0.784745 9.63549 0.821523 9.682 0.867925L14.632 5.81792C14.7257 5.91169 14.7784 6.03884 14.7784 6.17142C14.7784 6.30401 14.7257 6.43116 14.632 6.52492C14.152 7.00492 13.56 7.11292 13.129 7.11292C12.952 7.11292 12.794 7.09492 12.669 7.07392L9.535 10.2079C9.61751 10.5403 9.67104 10.8793 9.695 11.2209C9.741 11.9229 9.663 12.9079 8.97501 13.5959C8.88124 13.6897 8.75409 13.7423 8.6215 13.7423C8.48892 13.7423 8.36177 13.6897 8.268 13.5959L5.439 10.7679L2.257 13.9499C2.062 14.1449 1.038 14.8519 0.843004 14.6569C0.648004 14.4619 1.355 13.4369 1.55 13.2429L4.732 10.0609L1.904 7.23192C1.81027 7.13816 1.75761 7.01101 1.75761 6.87842C1.75761 6.74584 1.81027 6.61869 1.904 6.52492C2.592 5.83692 3.577 5.75792 4.279 5.80492C4.62066 5.82886 4.9596 5.8824 5.292 5.96492L8.426 2.83192C8.39985 2.67964 8.38647 2.52544 8.386 2.37092C8.386 1.94092 8.49401 1.34892 8.97501 0.867925C9.06871 0.774456 9.19565 0.721953 9.328 0.721925Z" fill="white"/>
</svg>
